<svg xmlns="http://www.w3.org/2000/svg" width="60" height="60" viewBox="0 0 60 60" fill="none"><circle cx="30.0002" cy="30" r="30" fill="white"></circle><circle cx="30.5208" cy="30.5" r="25" fill="#F4B72A"></circle><path d="M27.3033 25.8359C27.6609 26.1512 28.0161 25.8573 28.3676 25.7185C29.8556 25.1294 31.3306 25.1584 32.7927 25.8053C32.9337 25.8676 33.0985 25.9664 33.2383 25.9803C33.4755 26.0044 33.6556 25.9235 33.7787 25.7383C33.8664 25.6058 33.8852 25.4273 33.8163 25.2829C32.775 23.1072 31.7457 20.9748 30.7286 18.8848C30.6692 18.763 30.606 18.6381 30.5385 18.5099C30.5312 18.4964 30.5125 18.4968 30.506 18.5103C29.3705 20.8216 28.2691 23.06 27.2018 25.2262C27.099 25.4344 27.1316 25.6843 27.3033 25.8359Z" fill="white"></path><path d="M45.5121 42.306C45.4884 42.2715 45.4589 42.2409 45.4232 42.2135C45.1392 41.9954 44.8629 41.8034 44.5935 41.638C43.9904 41.2671 43.3554 40.9256 42.6885 40.613C41.2442 39.9363 39.7715 39.4016 38.2704 39.0093C38.2662 39.0082 38.2642 39.0057 38.2642 39.0014L38.2657 32.6398C38.2657 32.616 38.2531 32.5945 38.2328 32.5834C37.2333 32.0452 35.9906 32.0345 35.0037 32.6215C34.988 32.6311 34.9784 32.6481 34.9784 32.6668L34.9823 33.7596C34.9823 33.7782 34.9738 33.7853 34.9566 33.7814C34.3155 33.6354 33.6655 33.5188 33.0075 33.4315C32.9968 33.4299 32.9888 33.4204 32.9888 33.4093C32.9846 31.0813 32.9846 28.7989 32.9884 26.5621C32.9888 26.5205 32.9842 26.4796 32.975 26.44C32.9715 26.4269 32.9642 26.4174 32.9524 26.4114C32.0771 25.9778 31.1596 25.7688 30.2005 25.7851C29.3903 25.7989 28.6235 26.006 27.9004 26.407C27.895 26.4102 27.8915 26.4162 27.8915 26.4225L27.8923 33.4022C27.8923 33.4113 27.8881 33.4161 27.8797 33.4173C27.1991 33.5057 26.5073 33.6294 25.8049 33.7889C25.7988 33.7905 25.7927 33.7854 25.7927 33.779L25.7934 32.6656C25.7934 32.6469 25.7835 32.6303 25.7678 32.6219C25.0994 32.2641 24.4104 32.1249 23.7006 32.2046C23.291 32.2507 22.8951 32.376 22.5441 32.5918C22.5356 32.597 22.5307 32.6061 22.5307 32.616L22.5314 39.2898C22.5314 39.3049 22.5384 39.3101 22.5521 39.3057C22.8013 39.2228 23.0856 39.1482 23.4056 39.0828C23.5642 39.0506 23.7118 39.0388 23.8486 39.0475C23.9164 39.0518 23.9176 39.0625 23.8513 39.0796C21.87 39.5925 19.87 40.341 18.0044 41.3227C17.4833 41.5968 16.9594 41.8987 16.5398 42.2739C16.5068 42.3033 16.5187 42.3592 16.5609 42.3711C16.6057 42.3838 16.6578 42.3914 16.718 42.3941C17.6266 42.433 18.4153 42.4802 19.24 42.4763C21.1473 42.4679 22.9963 42.3073 24.7864 41.9951C25.5486 41.8622 26.3928 41.7194 27.3183 41.5663C27.8909 41.4715 28.4312 41.3953 28.939 41.3374C29.3958 41.2855 29.8004 41.2684 30.153 41.2871C30.2117 41.2902 30.2665 41.3112 30.3175 41.3505C30.3282 41.3589 30.3301 41.3688 30.3228 41.3803C30.301 41.4148 30.2734 41.4426 30.24 41.4636C30.0622 41.5766 29.8583 41.7 29.6284 41.8341C29.5337 41.8892 29.4716 41.9439 29.4426 41.9983C29.3127 42.2406 29.6472 42.3216 29.8085 42.3517C30.0247 42.3925 30.2416 42.4231 30.4589 42.4433C31.0229 42.4961 31.6135 42.5119 32.2305 42.4913C33.7745 42.4393 35.3185 42.2576 36.8625 41.9455C37.3507 41.8467 37.8547 41.8265 38.3322 41.9938C38.5747 42.0791 38.8158 42.191 39.0652 42.2735C39.1971 42.3171 39.2986 42.3449 39.3695 42.3568C40.446 42.5404 41.5133 42.5436 42.5718 42.3663C42.7936 42.329 43.0217 42.2866 43.2566 42.2386C43.741 42.1398 44.2051 42.1362 44.6488 42.2278C44.8385 42.2671 45.0244 42.312 45.2072 42.3615C45.2923 42.3845 45.3827 42.3913 45.4789 42.3818C45.5144 42.3782 45.5328 42.3361 45.5121 42.306ZM24.7273 34.4105C24.7273 34.4176 24.7219 34.4231 24.715 34.4231H23.4266C23.4197 34.4231 23.4144 34.4176 23.4144 34.4105V33.5973C23.4144 33.1582 23.6991 32.8024 24.0505 32.8024H24.0911C24.4425 32.8024 24.7273 33.1582 24.7273 33.5973V34.4105ZM30.4147 27.1845H30.4484C31.1022 27.1821 31.6341 27.8497 31.6368 28.6755L31.6402 29.612C31.6402 29.6188 31.6348 29.6243 31.6283 29.6243L29.2516 29.633C29.245 29.633 29.2397 29.6275 29.2397 29.6208L29.2363 28.6842C29.2336 27.8584 29.7613 27.1869 30.4147 27.1845ZM31.28 33.2296C31.28 33.2348 31.2762 33.2387 31.2712 33.2387L29.5835 33.2451C29.5789 33.2451 29.5747 33.2407 29.5747 33.236L29.5743 33.0638C29.5724 32.51 29.9495 32.0598 30.4166 32.0583H30.4304C30.8975 32.0567 31.2777 32.5041 31.2796 33.0574L31.28 33.2296ZM32.4952 38.485C32.4948 38.5016 32.4864 38.5087 32.4703 38.5068C31.0884 38.3235 29.7218 38.3239 28.3702 38.5076C28.3556 38.5095 28.348 38.5028 28.3476 38.4877C28.3303 37.9629 28.3472 37.4822 28.3978 37.0454C28.5139 36.0451 28.9814 34.9221 30.0537 34.7024C30.6558 34.579 31.1708 34.7214 31.5989 35.1288C32.0744 35.5818 32.3082 36.2878 32.4052 36.9463C32.4814 37.4616 32.5113 37.9745 32.4952 38.485ZM37.3583 34.4073C37.3583 34.416 37.3518 34.4227 37.3434 34.4227H36.0672C36.0588 34.4227 36.0523 34.416 36.0523 34.4073V33.6314C36.0523 33.1756 36.3363 32.806 36.6862 32.806H36.7245C37.0744 32.806 37.3583 33.1757 37.3583 33.6314L37.3583 34.4073Z" fill="white"></path><path d="M22.3817 32.2082C23.2869 31.7512 24.2733 31.6588 25.229 31.961C25.4118 32.0189 25.5893 32.1118 25.7625 32.1967C25.9548 32.2915 26.1273 32.2843 26.2802 32.176C26.4787 32.0348 26.491 31.8 26.3829 31.5755C25.6954 30.1495 25.0122 28.7322 24.3327 27.3237C24.2549 27.1622 24.1767 27.0072 24.0985 26.8576C24.0882 26.8378 24.0778 26.8378 24.0679 26.858C23.3194 28.3764 22.5794 29.8877 21.8471 31.3922C21.7233 31.6461 21.6225 31.792 21.7325 32.0197C21.8521 32.2661 22.1594 32.3204 22.3817 32.2082Z" fill="white"></path><path d="M34.7635 32.2641C34.8432 32.2637 34.9709 32.2229 35.146 32.1408C35.6905 31.8857 36.2631 31.7687 36.8635 31.7905C37.2694 31.8056 37.7208 31.9 38.109 32.0765C38.2715 32.1503 38.4382 32.2582 38.6149 32.2625C38.8513 32.2677 39.0529 32.0841 39.0621 31.8322C39.0644 31.7691 39.0364 31.6775 38.9782 31.5565C38.2681 30.0809 37.5169 28.5141 36.7252 26.8565C36.7191 26.8434 36.7011 26.8434 36.6945 26.8565C35.9289 28.4328 35.1739 30.004 34.396 31.5633C34.3485 31.6589 34.3213 31.7398 34.3147 31.806C34.2879 32.069 34.5286 32.2645 34.7635 32.2641Z" fill="white"></path></svg>