<svg width="20" height="20" viewBox="0 0 20 20" fill="none" xmlns="http://www.w3.org/2000/svg">
<path d="M12.2792 18.705C11.9355 18.6996 11.5996 18.6017 11.3068 18.4217C11.014 18.2416 10.7752 17.986 10.6153 17.6817L7.72023 12.3907C7.65719 12.2697 7.55844 12.1709 7.43738 12.1079L2.14637 9.2544C1.81018 9.07178 1.53526 8.79414 1.35595 8.45617C1.17664 8.1182 1.10089 7.73489 1.13817 7.35413C1.17545 6.97336 1.3241 6.61201 1.56555 6.31524C1.80701 6.01847 2.13055 5.79942 2.49578 5.68547L16.2807 1.08495C16.6288 0.961583 17.0047 0.939345 17.365 1.02081C17.7252 1.10228 18.055 1.28411 18.3161 1.54527C18.5773 1.80642 18.7591 2.1362 18.8406 2.49643C18.9221 2.85666 18.8998 3.2326 18.7764 3.58071L14.1427 17.3739C14.0262 17.7336 13.8062 18.051 13.5103 18.2863C13.2143 18.5216 12.8555 18.6643 12.4788 18.6967L12.2792 18.705ZM16.6384 2.2746L2.8535 6.87511C2.72209 6.91736 2.60613 6.99759 2.52025 7.10567C2.43438 7.21375 2.38244 7.34485 2.37099 7.48241C2.35857 7.61834 2.38672 7.75489 2.45187 7.87483C2.51702 7.99476 2.61625 8.0927 2.73704 8.15627L8.02804 11.0098C8.36458 11.1883 8.63987 11.4635 8.81837 11.8001L11.6469 17.0911C11.7105 17.2119 11.8084 17.3111 11.9283 17.3763C12.0483 17.4414 12.1848 17.4695 12.3208 17.4571C12.4583 17.4457 12.5894 17.3937 12.6975 17.3079C12.8056 17.222 12.8858 17.106 12.9281 16.9746L17.5535 3.18971C17.6074 3.06171 17.6219 2.92056 17.5951 2.78429C17.5684 2.64801 17.5017 2.52279 17.4035 2.4246C17.3053 2.3264 17.1801 2.25969 17.0438 2.23297C16.9076 2.20626 16.7664 2.22075 16.6384 2.2746Z" fill="#133D3C"/>
<path d="M8.045 12.4079C7.96282 12.4098 7.88115 12.3945 7.80523 12.363C7.7293 12.3315 7.66079 12.2844 7.60408 12.2249C7.54522 12.1676 7.49843 12.099 7.46649 12.0233C7.43455 11.9476 7.41809 11.8662 7.41809 11.784C7.41809 11.7018 7.43455 11.6205 7.46649 11.5447C7.49843 11.469 7.54522 11.4004 7.60408 11.3431L17.3875 1.52644C17.5088 1.40509 17.6734 1.33691 17.845 1.33691C18.0166 1.33691 18.1812 1.40509 18.3026 1.52644C18.4239 1.64779 18.4921 1.81238 18.4921 1.984C18.4921 2.15561 18.4239 2.3202 18.3026 2.44155L8.48592 12.2249C8.42831 12.2833 8.35964 12.3295 8.28392 12.3609C8.20821 12.3923 8.12698 12.4083 8.045 12.4079Z" fill="#133D3C"/>
</svg>
